<svg xmlns="http://www.w3.org/2000/svg" style="transform: matrix(1, 0, 0, 1, 0, 0); transform-origin: 50% 50%; cursor: move; max-height: 344.62px; transition: transform 200ms ease-in-out;" width="512" height="512" viewBox="0 0 5120 5120"><g id="l296eThRACj2dPBtxpKdzXF" fill="rgb(196,96,255)" style="transform: none;"><g><path id="p01a2wbYp" d="M3350 3697 c0 -29 96 -201 491 -886 270 -468 496 -851 502 -851 5 0 71 35 145 78 92 52 155 96 196 137 105 104 158 233 158 385 0 152 -52 279 -158 384 -53 53 -141 107 -680 418 -340 196 -627 360 -636 364 -15 5 -18 0 -18 -29z"></path></g></g><g id="l4tDDYBteLvF7Hye6E3XLxS" fill="rgb(181,112,255)" style="transform: none;"><g><path id="prTWiLtHY" d="M2322 4286 c2 -24 233 -433 753 -1333 l749 -1299 278 161 c240 138 275 162 264 175 -33 37 -985 1702 -980 1713 3 9 -174 116 -519 315 -288 166 -529 302 -536 302 -8 0 -11 -12 -9 -34z"></path></g></g><g id="l24OAEGnqAb6o0eZ4hliKm5" fill="rgb(155,139,255)" style="transform: none;"><g><path id="p81pAso4m" d="M754 5109 c-87 -10 -179 -49 -178 -74 0 -16 2239 -3910 2263 -3938 4 -4 135 67 292 157 209 122 284 170 283 183 0 10 -430 763 -956 1673 -525 910 -962 1668 -970 1684 -11 21 -70 61 -229 153 -269 155 -346 180 -505 162z"></path></g></g><g id="l4YUsbQWbwruZIzDttMNTsB" fill="rgb(168,126,255)" style="transform: none;"><g><path id="piOhwSyki" d="M1441 4821 c-10 -6 216 -406 964 -1702 538 -932 981 -1698 985 -1702 6 -6 444 236 467 257 1 1 -337 589 -751 1306 -472 817 -749 1308 -742 1312 6 4 8 9 6 11 -7 7 -908 527 -912 527 -2 0 -9 -4 -17 -9z"></path></g></g><g id="l6CJiaPxNqWyZvZkCXpo0sl" fill="rgb(140,156,255)" style="transform: none;"><g><path id="p10GiQkXbX" d="M535 5031 c-59 -34 -151 -127 -187 -191 -58 -100 -70 -159 -75 -370 l-4 -195 1010 -1749 c556 -962 1012 -1751 1014 -1752 1 -1 136 75 299 169 224 129 293 174 283 181 -7 6 -522 894 -1145 1974 -623 1079 -1135 1962 -1139 1962 -3 0 -28 -13 -56 -29z"></path></g></g><g id="l4WdRzf001kZ72fets4uoRF" fill="rgb(125,172,255)" style="transform: none;"><g><path id="pqDHU7DD1" d="M270 3640 l0 -715 718 -1242 c394 -684 721 -1243 725 -1243 16 0 628 358 618 361 -6 2 -467 796 -1026 1764 -559 968 -1021 1767 -1026 1775 -5 9 -8 -279 -9 -700z"></path></g></g><g id="lvNYug4XWJzJMia1M0f9x3" fill="rgb(108,189,255)" style="transform: none;"><g><path id="p12wdSOUTh" d="M270 2290 l0 -713 421 -731 c232 -402 425 -735 429 -740 11 -12 630 346 620 359 -4 6 -335 577 -735 1270 -400 693 -729 1262 -731 1264 -2 2 -4 -317 -4 -709z"></path></g></g><g id="lv1zayw8awCbRTtydfVS3h" fill="rgb(93,206,255)" style="transform: none;"><g><path id="pkEWt45vP" d="M272 1055 l3 -600 27 -73 c65 -179 199 -304 382 -357 73 -21 209 -21 284 0 44 13 171 73 190 89 2 3 -875 1526 -885 1536 -2 2 -3 -265 -1 -595z"></path></g></g></svg>